<?xml version="1.0" encoding="utf-8"?>
<!-- Generator: Adobe Illustrator 16.0.0, SVG Export Plug-In . SVG Version: 6.00 Build 0)  -->
<!DOCTYPE svg PUBLIC "-//W3C//DTD SVG 1.1//EN" "http://www.w3.org/Graphics/SVG/1.1/DTD/svg11.dtd">
<svg version="1.1" id="Layer_1" xmlns="http://www.w3.org/2000/svg" xmlns:xlink="http://www.w3.org/1999/xlink" x="0px" y="0px"
	 width="800px" height="800px" viewBox="0 0 800 800" enable-background="new 0 0 800 800" xml:space="preserve">
<title>return</title>
<path fill="#FFFFFF" d="M0.038,549.613c0.533-13.332,5.6-24.798,15.2-34.396l99.995-99.991c7.466-7.999,16.266-12.798,26.398-14.398
	c10.133-1.6,19.466-0.534,27.999,3.199c8.533,3.733,15.733,9.866,21.599,18.399c5.866,8.532,8.799,17.864,8.799,27.997v49.596
	h450.379c13.333,0,25.065-4.8,35.198-14.399c10.133-9.599,14.933-21.331,14.399-35.196V250.44c0-13.866-4.8-25.598-14.399-35.197
	c-9.6-9.599-21.332-14.666-35.198-15.199H250.426c-12.266,0-22.666-3.467-31.198-10.399c-8.534-6.933-13.866-15.199-16-24.798
	c-2.134-9.599-2.134-19.198,0-28.797c2.133-9.599,7.466-18.131,16-25.598c8.533-7.466,18.932-10.932,31.198-10.399h399.981
	c41.064,0,76.264,14.665,105.595,43.996C785.334,173.38,800,208.843,800,250.44v199.983c0,41.596-14.666,76.793-43.998,105.591
	c-29.331,28.797-64.53,43.463-105.595,43.996H200.028v50.396c0,10.665-2.933,20.265-8.799,28.797
	c-5.866,8.533-13.333,14.398-22.399,17.599s-18.399,3.999-27.999,2.4c-9.599-1.601-18.132-6.134-25.598-13.6L15.237,585.61
	C4.571,575.479-0.495,563.479,0.038,549.613L0.038,549.613z"/>
</svg>
